<?xml version="1.0" encoding="utf8" standalone="no"?>
<svg viewBox="0 0 372.77139 350.83377" xmlns="http://www.w3.org/2000/svg" xmlns:xlink="http://www.w3.org/1999/xlink">
<defs>
<clipPath id="clipPath4110">
<path d="m1349.1479-106.15129v-302.89728c-47.8699-80.88268-146.0391-44.39418-170.2081,0-74.5507,130.56653 130.5076,196.53622 170.2081,302.89728z"/>
<path d="m1349.1479-106.15129v-302.89728c47.8699-80.88268 146.0391-44.39418 170.2081,0 74.5507,130.56653-130.5076,196.53622-170.2081,302.89728z"/>
</clipPath>
<filter height="1.35511" id="filter4031" width="1.33422" x="-.16711" y="-.17756">
<feGaussianBlur stdDeviation="25.9554"/>
</filter>
<linearGradient id="linearGradient4159">
<stop offset="0" stop-color="#fff"/>
<stop offset="1" stop-color="#fff" stop-opacity="0"/>
</linearGradient>
<linearGradient gradientUnits="userSpaceOnUse" id="linearGradient4169" x2="0" xlink:href="#linearGradient4159" y1="386.94983" y2="490.03617"/>
<linearGradient gradientUnits="userSpaceOnUse" id="linearGradient4165" x2="0" xlink:href="#linearGradient4159" y1="387.32314" y2="490.40948"/>
</defs>
<g transform="translate(-202.18571,-396.94529)">
<g clip-path="url(#clipPath4110)" transform="translate(-960.57649,853.93036)">
<path d="m1349.1479-106.15129v-302.89728c-47.8699-80.88268-146.0391-44.39418-170.2081,0-74.5507,130.56653 130.5076,196.53622 170.2081,302.89728z"/>
<path d="m1349.1479-106.15129v-302.89728c47.8699-80.88268 146.0391-44.39418 170.2081,0 74.5507,130.56653-130.5076,196.53622-170.2081,302.89728z"/>
</g>
<g clip-path="url(#clipPath4110)" fill="#f00" filter="url(#filter4031)" transform="translate(-960.57649,853.93036)">
<path d="m1349.1479-106.15129v-302.89728c-47.8699-80.88268-146.0391-44.39418-170.2081,0-74.5507,130.56653 130.5076,196.53622 170.2081,302.89728z" fill="#f00"/>
<path d="m1349.1479-106.15129v-302.89728c47.8699-80.88268 146.0391-44.39418 170.2081,0 74.5507,130.56653-130.5076,196.53622-170.2081,302.89728z" fill="#f00"/>
</g>
<path d="m370.99493,455.63757c0,30.71925-28.70788,20.90496-64.58143,20.90496s-65.328,9.81429-65.328-20.90496 29.08123-55.62213 64.95466-55.62213 64.95477,24.90287 64.95477,55.62213z" fill="url(#linearGradient4165)"/>
<path d="m535.62152,455.26427c0,30.71925-28.7079,20.90496-64.5815,20.90496s-65.328,9.81429-65.328-20.90496 29.0813-55.62213 64.9547-55.62213 64.9548,24.90287 64.9548,55.62213z" fill="url(#linearGradient4169)"/>
</g>
</svg>
