<?xml version="1.0" encoding="UTF-8"?>
<svg width="508" height="508" version="1.1" viewBox="0 0 508 508" xmlns="http://www.w3.org/2000/svg" xmlns:xlink="http://www.w3.org/1999/xlink">
    <!--Generated by IJSVG (https://github.com/iconjar/IJSVG)-->
    <defs>
        <linearGradient id="a" x1="0.145454" x2="0.599999" y1="0.257812" y2="0.570312" gradientTransform="matrix(1,0,0,1,-7.61378e-09,-1.86769e-08)">
            <stop offset="0%" stop-color="#FBDDB2" stop-opacity="0.99"></stop>
            <stop offset="100%" stop-color="#EFA81A" stop-opacity="0.95"></stop>
        </linearGradient>
        <linearGradient id="b" x1="-0.0270271" x2="0.783784" y1="0.46875" y2="0.476562" gradientTransform="matrix(1,0,0,1,3.52391e-08,-2.90476e-08)">
            <stop offset="0%" stop-color="#787878" stop-opacity="0.99"></stop>
            <stop offset="100%" stop-color="#FFF" stop-opacity="0.99"></stop>
        </linearGradient>
        <linearGradient id="c" x1="0.235289" x2="0.672269" y1="0.265619" y2="0.59375" gradientTransform="matrix(1,0,0,1,1.18803e-07,-1.01189e-08)" xlink:href="#b"></linearGradient>
        <linearGradient id="d" x1="0.981639" x2="0.146789" y1="0.0312495" y2="0.601562" gradientTransform="matrix(1,0,0,1,-5.18186e-08,1.7497e-08)" xlink:href="#b"></linearGradient>
        <linearGradient id="e" x1="1.20507" x2="0.102482" y1="0.523438" y2="0.515617" gradientTransform="matrix(1,0,0,1,8.20491e-05,8.70101e-06)" xlink:href="#b"></linearGradient>
        <radialGradient id="f" fx="-0.0123102%" fy="-0.0135221%" cx="-0.000123102" cy="-0.000135221" r="0.981982" gradientTransform="matrix(0.897766,0,0,1.11388,0.194914,0.125151)" xlink:href="#a"></radialGradient>
        <linearGradient id="g" x1="0.242009" x2="0.497717" y1="0.382812" y2="0.507812" gradientTransform="matrix(1,0,0,1,5.50934e-10,1.51001e-09)">
            <stop offset="0%" stop-color="#CA536D" stop-opacity="0.99"></stop>
            <stop offset="100%" stop-color="#A81837" stop-opacity="0.95"></stop>
        </linearGradient>
    </defs>
    <g transform="scale(1.00011)">
        <path fill="url(#a)" fill-rule="evenodd" stroke="#580400" stroke-width="11.905" d="M126.604,52.0403h51.3235v120.598h-51.3235Z"></path>
        <path fill="none" fill-rule="evenodd" stroke="#154850" stroke-linejoin="round" stroke-width="11.905" d="M111.364,481.507c270.797,-1.602 272.4,0 272.4,0l-1.603,-227.534l-134.597,-132.995l-134.598,136.2c-1.603,1.602 1.42109e-14,222.727 -1.602,224.329Z" transform="matrix(1.07519,0,0,1.07519,-12.0839,-29.7941)"></path>
        <path fill="url(#b)" fill-rule="evenodd" d="M117.773,475.097c59.287,0 59.287,-1.602 59.287,-1.602c0,0 0,-171.451 0,-171.451c0,0 -57.685,-43.264 -57.685,-43.264c-3.205,1.602 -1.602,217.92 -1.602,216.317Z" transform="matrix(1.07519,0,0,1.07519,-12.0839,-29.7941)"></path>
        <path fill="url(#c)" fill-rule="evenodd" d="M117.773,258.78l124.983,-126.586l28.844,84.924l-94.54,84.926l-59.287,-43.264Z" transform="matrix(1.07519,0,0,1.07519,-12.0839,-29.7941)"></path>
        <path fill="url(#d)" fill-rule="evenodd" d="M229.938,205.902l22.433,-75.31l123.381,124.983l-59.288,51.275l-86.526,-100.948Z" transform="matrix(1.07519,0,0,1.07519,-12.0839,-29.7941)"></path>
        <path fill="url(#e)" fill-rule="evenodd" d="M314.862,475.098l-1.602,-173.054l64.094,-48.071l1.603,221.125h-64.095Z" transform="matrix(1.07519,0,0,1.07519,-12.0839,-29.7941)"></path>
        <path fill="url(#f)" fill-rule="evenodd" stroke="#580400" stroke-linejoin="round" stroke-width="11.9213" d="M177.06,486.314l-1.602,-153.826c0,-36.854 20.029,-62.491 62.491,-62.491c44.065,0 65.697,30.444 65.697,62.491v153.826c0,0 -126.586,-1.602 -126.586,0Z" transform="matrix(1.07519,0,0,1.07519,-5.19257,-47.0224)"></path>
        <path fill="url(#g)" fill-rule="evenodd" stroke="#580400" stroke-width="11.905" d="M63.293,303.646c150.621,-144.212 150.621,-144.212 150.621,-144.212c0,0 68.901,-1.602 70.503,-1.602c1.603,0 139.405,137.802 139.405,137.802c0,0 32.048,-33.649 32.048,-33.649c0,0 -206.704,-206.704 -206.704,-206.704c0,-1.42109e-14 -216.318,214.716 -216.318,214.716c7.10543e-15,0 30.4448,33.649 30.4448,33.649Z" transform="matrix(1.07519,0,0,1.07519,-12.0839,-29.7941)"></path>
    </g>
</svg>