<?xml version="1.0" encoding="utf-8"?>
<!-- Generator: Adobe Illustrator 16.0.0, SVG Export Plug-In . SVG Version: 6.00 Build 0)  -->
<!DOCTYPE svg PUBLIC "-//W3C//DTD SVG 1.1//EN" "http://www.w3.org/Graphics/SVG/1.1/DTD/svg11.dtd">
<svg version="1.1" id="Layer_1" xmlns="http://www.w3.org/2000/svg" xmlns:xlink="http://www.w3.org/1999/xlink" x="0px" y="0px"
	 width="136.913px" height="136.914px" viewBox="0 0 136.913 136.914" enable-background="new 0 0 136.913 136.914"
	 xml:space="preserve">
<g>
	<g>
		<g>
			<g>
				<circle fill="#4ABC96" cx="68.456" cy="68.457" r="63.333"/>
			</g>
		</g>
	</g>
	<g>
		<path fill="#263A45" d="M51.928,115.945c-1.477,1.475-3.871,1.475-5.348,0l-23.848-23.85c-1.477-1.475-1.959-7.002-0.482-8.479
			l45.244-45.244c1.477-1.477,4.596-1.719,6.07-0.24L97.412,61.98c1.477,1.477,1.238,7.242-0.24,8.719L51.928,115.945z"/>
		<g>
			<defs>
				<path id="SVGID_1_" d="M114.891,41.169l-0.166-0.166c-0.123-0.197-0.264-0.385-0.436-0.557L94.615,20.775
					c-1.219-1.219-3.193-1.219-4.412,0l-39.492,39.49c-1.094,1.096-1.197,2.797-0.328,4.016c-0.869,1.217-0.766,2.918,0.328,4.012
					l19.674,19.672c1.219,1.219,3.193,1.219,4.412,0l39.492-39.49C115.508,47.255,116.109,42.39,114.891,41.169z"/>
			</defs>
			<clipPath id="SVGID_2_">
				<use xlink:href="#SVGID_1_"  overflow="visible"/>
			</clipPath>
			<g clip-path="url(#SVGID_2_)">
				<path fill="#989A9A" d="M74.797,84.353c-1.219,1.219-3.193,1.219-4.412,0L50.711,64.681c-0.125-0.125-0.229-0.262-0.328-0.402
					c-0.869,1.221-0.766,2.92,0.328,4.014l19.674,19.672c1.219,1.219,3.193,1.219,4.412,0l38.264-38.262l-2.305-1.309L74.797,84.353
					z"/>
				<path fill="#C9C9C8" d="M82.326,32.263l-2.305-1.309L50.711,60.265c-1.094,1.096-1.197,2.795-0.328,4.014
					c0.1-0.139,0.203-0.275,0.328-0.4L82.326,32.263z"/>
				<path fill="#C9C9C8" d="M70.385,84.353c1.219,1.219,3.193,1.219,4.412,0l35.959-35.959l-28.43-16.131L50.711,63.878
					c-0.125,0.125-0.229,0.262-0.328,0.4c0.1,0.141,0.203,0.277,0.328,0.402L70.385,84.353z"/>
				<path fill="#989A9A" d="M114.891,41.169l-0.166-0.164c0.752,1.205,0.611,2.809-0.436,3.854l-3.533,3.535l2.305,1.309
					l1.229-1.229C115.508,47.255,116.109,42.39,114.891,41.169z"/>
				<path opacity="0.2" fill="#FFFFFF" d="M114.891,41.169l-0.166-0.164c0.752,1.205,0.611,2.809-0.436,3.854l-3.533,3.535
					l2.305,1.309l1.229-1.229C115.508,47.255,116.109,42.39,114.891,41.169z"/>
				<path fill="#C9C9C8" d="M90.203,24.386c1.219-1.217,3.795-4.107,5.016-2.889l19.506,19.508
					c-0.123-0.197-0.264-0.387-0.436-0.559L94.615,20.775c-1.219-1.219-3.193-1.219-4.412,0l-10.182,10.18l2.305,1.309
					L90.203,24.386z"/>
				<path fill="#C9C9C8" d="M90.203,24.386l-7.877,7.877l28.43,16.131l3.533-3.535c1.047-1.045,1.188-2.648,0.436-3.854
					L95.219,21.498C93.998,20.279,91.422,23.169,90.203,24.386z"/>
				<path opacity="0.2" fill="#FFFFFF" d="M114.725,41.005c-0.123-0.197-0.264-0.387-0.436-0.559L94.615,20.775
					c-1.219-1.219-3.193-1.219-4.412,0l-10.182,10.18l2.305,1.309l28.43,16.131l3.533-3.535
					C115.336,43.814,115.477,42.21,114.725,41.005z"/>
			</g>
		</g>
		<path fill="#344E5D" d="M51.928,112.33c-1.477,1.477-3.871,1.477-5.348,0L22.732,88.482c-1.477-1.477-1.477-3.871,0-5.348
			L67.977,37.89c1.477-1.477,3.871-1.477,5.348,0l23.848,23.848c1.479,1.477,1.479,3.873,0,5.348L51.928,112.33z"/>
		<g>
			<path fill="#989897" d="M98.527,55.5c-0.357,0.359-0.936,0.359-1.293,0l-3.881-3.879c-0.355-0.357-0.355-0.936,0-1.293
				l2.668-2.666c0.357-0.357,0.938-0.357,1.295,0l3.879,3.879c0.357,0.357,0.357,0.936,0,1.293L98.527,55.5z"/>
			<g>
				<path fill="#807F7F" d="M97.535,49.443c-0.316-0.314-0.818-0.322-1.125-0.016l-2.281,2.283
					c-0.133,0.131-0.193,0.301-0.211,0.475l3.316,3.314c0.357,0.359,0.936,0.359,1.293,0l2.512-2.51
					c-0.029-0.045-0.049-0.092-0.088-0.131L97.535,49.443z"/>
			</g>
		</g>
		<g>
			<path fill="#989897" d="M84.736,41.693c-0.357,0.357-0.938,0.357-1.293,0l-3.879-3.877c-0.357-0.357-0.357-0.938,0-1.295
				l2.666-2.666c0.357-0.357,0.938-0.357,1.293,0l3.881,3.879c0.357,0.357,0.357,0.938,0,1.295L84.736,41.693z"/>
			<g>
				<path fill="#807F7F" d="M83.744,35.636c-0.314-0.314-0.818-0.322-1.125-0.016l-2.281,2.283
					c-0.133,0.131-0.193,0.303-0.211,0.475l3.316,3.314c0.355,0.357,0.936,0.357,1.293,0l2.512-2.51
					c-0.029-0.043-0.049-0.092-0.086-0.131L83.744,35.636z"/>
			</g>
		</g>
		<path fill="#263A45" d="M47.502,94.755c1.908-1.906,2.143-4.852,0.709-7.018l2.023-2.023h0.025v-0.023l4.404-4.406l13.123,0.893
			c0.275,0.02,0.545-0.082,0.742-0.277l3.793-3.793l1.918,1.918l5.436-5.436l-5.436-5.436l-5.436,5.438l2.16,2.158l-3.484,3.486
			l-11.016-0.752l15.771-15.771l3.559,3.559l0.693-9.443l-9.414,0.723l3.459,3.457L50.262,82.283L50.26,71.716l2.945-2.947
			c1.764,1.291,4.248,1.146,5.842-0.449c1.76-1.758,1.762-4.611,0-6.369c-1.76-1.762-4.611-1.76-6.369,0
			c-1.461,1.459-1.705,3.666-0.748,5.383l-3.309,3.309c-0.178,0.176-0.279,0.426-0.279,0.676v12.883l-1.865,1.865
			c-2.148-1.322-4.998-1.057-6.859,0.803c-2.178,2.178-2.178,5.709,0,7.885C41.795,96.931,45.326,96.931,47.502,94.755z"/>
	</g>
</g>
</svg>
