<svg xmlns="http://www.w3.org/2000/svg" xmlns:xlink="http://www.w3.org/1999/xlink" width="500pt" height="800">
  <defs>
    <linearGradient id="a">
      <stop offset="0" stop-color="#3f2600" stop-opacity=".6"/>
      <stop offset="1" stop-color="#3f2600" stop-opacity="0"/>
    </linearGradient>
    <linearGradient id="d">
      <stop offset="0" stop-color="#fff" stop-opacity=".65"/>
      <stop offset="1" stop-color="#fff" stop-opacity="0"/>
    </linearGradient>
    <linearGradient id="e">
      <stop offset="0" stop-color="#ffa63f"/>
      <stop offset="1" stop-color="#ff0"/>
    </linearGradient>
    <linearGradient id="b">
      <stop offset="0" stop-color="#ffeed7"/>
      <stop offset="1" stop-color="#bdbfc2"/>
    </linearGradient>
    <linearGradient id="c">
      <stop offset="0" stop-color="#fff" stop-opacity=".8"/>
      <stop offset="1" stop-color="#fff" stop-opacity="0"/>
    </linearGradient>
    <filter id="filter">
      <feGaussianBlur stdDeviation="4"/>
    </filter>
    <radialGradient id="f" cx="446.77762" cy="1219.4125" r="195.07191" fx="446.77762" fy="1219.4125" gradientTransform="scale(1.04523 .95673)" gradientUnits="userSpaceOnUse" xlink:href="#a"/>
    <linearGradient id="g" x1="400.57785" x2="400.84448" y1="369.53015" y2="304.07886" gradientTransform="scale(.57526 1.73834)" gradientUnits="userSpaceOnUse" xlink:href="#b"/>
    <linearGradient id="h" x1="303.01761" x2="297.0856" y1="237.93179" y2="330.09561" gradientTransform="scale(1.11607 .896)" gradientUnits="userSpaceOnUse" xlink:href="#c"/>
    <linearGradient id="i" x1="378.93771" x2="380.27319" y1="278.60202" y2="243.91606" gradientTransform="scale(.8165 1.22474)" gradientUnits="userSpaceOnUse" xlink:href="#b"/>
    <linearGradient id="j" x1="381.38742" x2="380.5517" y1="277.495" y2="245.68338" gradientTransform="scale(.8165 1.22474)" gradientUnits="userSpaceOnUse" xlink:href="#b"/>
    <linearGradient id="k" x1="379.09573" x2="376.79556" y1="240.92712" y2="281.01636" gradientTransform="scale(.8165 1.22474)" gradientUnits="userSpaceOnUse" xlink:href="#d"/>
    <linearGradient id="l" x1="389.63535" x2="387.06866" y1="242.28218" y2="281.32513" gradientTransform="scale(.8165 1.22474)" gradientUnits="userSpaceOnUse" xlink:href="#d"/>
    <linearGradient id="m" x1="437.57941" x2="437.57941" y1="528.87177" y2="394.10361" gradientTransform="scale(.81285 1.23023)" gradientUnits="userSpaceOnUse" spreadMethod="reflect" xlink:href="#b"/>
    <linearGradient id="n" x1="375.17325" x2="377.48541" y1="419.78485" y2="324.03815" gradientTransform="scale(.64978 1.53897)" gradientUnits="userSpaceOnUse" xlink:href="#b"/>
    <linearGradient id="o" x1="320.75104" x2="321.32224" y1="498.17776" y2="614.50439" gradientTransform="scale(1.0748 .9304)" gradientUnits="userSpaceOnUse" xlink:href="#c"/>
    <linearGradient id="p" x1="322.48257" x2="323.2514" y1="435.26761" y2="488.48251" gradientTransform="scale(1.077 .9285)" gradientUnits="userSpaceOnUse" xlink:href="#d"/>
    <linearGradient id="q" x1="411.2215" x2="411.2215" y1="242.94365" y2="331.44858" gradientTransform="scale(.5717 1.74915)" gradientUnits="userSpaceOnUse" xlink:href="#d"/>
    <linearGradient id="r" x1="867.34546" x2="867.33453" y1="234.73897" y2="314.83911" gradientTransform="scale(.57267 1.74621)" gradientUnits="userSpaceOnUse" xlink:href="#d"/>
    <linearGradient id="s" x1="236.25362" x2="212.5099" y1="657.11133" y2="737.41229" gradientTransform="scale(1.01151 .98862)" gradientUnits="userSpaceOnUse" xlink:href="#e"/>
    <linearGradient id="t" x1="381.56607" x2="279.64313" y1="655.73102" y2="386.66583" gradientTransform="scale(1.0655 .93853)" gradientUnits="userSpaceOnUse" xlink:href="#b"/>
    <linearGradient id="u" x1="218.11714" x2="203.12654" y1="630.30475" y2="737.8537" gradientTransform="scale(1.00985 .99025)" gradientUnits="userSpaceOnUse" xlink:href="#e"/>
    <linearGradient id="v" x1="117.88966" x2="182.24524" y1="587.23602" y2="704.73077" gradientTransform="scale(1.00772 .99233)" gradientUnits="userSpaceOnUse" xlink:href="#d"/>
    <linearGradient id="w" x1="223.10072" x2="230.53499" y1="570.41809" y2="710.97723" gradientTransform="scale(.9995 1.0005)" gradientUnits="userSpaceOnUse" xlink:href="#d"/>
    <linearGradient id="x" x1="316.93988" x2="371.60889" y1="474.01779" y2="582.63507" gradientTransform="scale(1.0655 .93853)" gradientUnits="userSpaceOnUse" xlink:href="#d"/>
    <linearGradient id="y" x1="284.68652" x2="285.45923" y1="410.46326" y2="485.69934" gradientTransform="scale(1.21868 .82056)" gradientUnits="userSpaceOnUse" xlink:href="#e"/>
    <linearGradient id="z" x1="288.82358" x2="288.37628" y1="398.85422" y2="482.55939" gradientTransform="scale(1.22194 .81837)" gradientUnits="userSpaceOnUse" xlink:href="#d"/>
  </defs>
  <path fill="url(#f)" d="M670.88202 1166.6423a203.89551 186.63016 0 1 1-407.79102 0 203.89551 186.63016 0 1 1 407.79102 0z" transform="matrix(1.4177 0 0 .41474 -349.5468 157.94132)"/>
  <path d="M154.23535 558.54232c-27.985-40.27875-33.4425-171.23 31.85875-251.7875 32.3575-38.6475 40.6125-65.58125 43.16375-101.74125 1.73625-41.22375-29.15625-164.3025 87.35375-173.68 118.0075-9.415 111.67 107.075 110.99125 168.71875-.56375 52.05 38.2175 81.55125 64.745 122.11875 49.09875 74.5375 44.94625 202.875-9.24875 272.34-68.64625 86.96-127.44125 49.2475-166.4875 52.4125-73.11625 4.0025-75.53375 42.98875-162.37625-88.38125z"/>
  <path fill="url(#g)" d="M246.571 470.864c-12.239 12.496-44.396 69.092 4.869 105.36 17.369 12.633-16.377 59.495-32.005 36.308-27.57-41.618-8.831-106.941 8.315-130.188 11.652-16.487 29.23-22.676 18.821-11.48z" transform="matrix(-1.67739 -.02245 -.02112 1.4709 862.8276 -357.26968)"/>
  <path stroke="#000" stroke-width=".97729802" d="M256.513 459.837c-19.915 17.717-56.176 80.091-3.288 120.606 17.37 12.632-15.393 52.463-33.79 32.089-63.963-70.82 1.669-152.254 24.262-180.25 20.192-24.347 38.078 5.752 12.816 27.555z" transform="matrix(-1.67755 0 0 1.52374 863.8676 -382.33468)"/>
  <path fill="url(#h)" d="M399.56879 258.15753a58.37323 46.863022 0 1 1-116.74646 0 58.37323 46.863022 0 1 1 116.74646 0z" transform="matrix(1.26626 -.07137 -.04598 1.19574 -108.6094 -190.01368)"/>
  <path fill="url(#i)" d="M328.86324 320.64151a18.087479 27.131195 0 1 1-36.17496 0 18.087479 27.131195 0 1 1 36.17496 0z" transform="matrix(1.30445 -.07553 .07713 1.34257 -165.9954 -241.86968)"/>
  <path fill="url(#j)" d="M328.86324 320.64151a18.087479 27.131195 0 1 1-36.17496 0 18.087479 27.131195 0 1 1 36.17496 0z" transform="matrix(-1.81082 .04951 .03173 1.55333 896.7076 -349.02968)"/>
  <path d="M326.35672821 170.5767474a14.88487384 23.14205282 2.00317994 1 0 29.77908237.06371242 14.88487384 23.14205282 2.00317994 1 0-29.77908237-.06371242zm-52.12561644.13467082a10.82556484 19.2435689-4.93566296 1 1-21.50167273 2.6153013 10.82556484 19.2435689-4.93566296 1 1 21.50167273-2.6153013z"/>
  <path fill="url(#k)" d="M328.86324 320.64151a18.087479 27.131195 0 1 1-36.17496 0 18.087479 27.131195 0 1 1 36.17496 0z" transform="matrix(-.48032 -.03645 -.0468 .4756 502.7436 22.75972)"/>
  <path fill="url(#l)" d="M328.86324 320.64151a18.087479 27.131195 0 1 1-36.17496 0 18.087479 27.131195 0 1 1 36.17496 0z" transform="matrix(.35691 -.04082 .04132 .39854 138.5816 50.73832)"/>
  <path fill="url(#m)" d="M258.702 495.425c12.836-29.103 40.114-80.226 40.695-119.758 0-31.442 94.179-38.951 101.737-7.558 7.558 31.393 26.741 78.483 38.95 101.156 12.208 22.672 47.809 94.695 9.884 157.546-34.157 55.644-137.725 99.666-193.01-7.557-18.603-37.207-15.285-83.315 1.744-123.829z" transform="matrix(1.25 0 0 1.25 -125.2984 -232.48268)"/>
  <path fill="url(#n)" d="M242.905 473.815c-11.263 18.967-35.5 69.309 12.137 102.047 51.311 34.82 46.473 97.062-15.607 61.955-56.777-31.789-22.845-137.778-4.51-162.266 12.107-17.214 29.897-38.031 7.98-1.736z" transform="matrix(1.38936 -.11107 .10221 1.30214 -202.3394 -230.19068)"/>
  <path stroke="#000" stroke-width="1.5625" d="M195.34285 330.39232c-21.83125 35.635-74.22125 119.76625-4.11 163.40375 94.46125 57.94375 67.71625 115.88875-18.49875 63.7175-121.38625-72.83-14.78125-219.52 33.91375-275.4225 55.555-62.75 10.6925 11.35875-11.305 48.30125z"/>
  <path fill="url(#o)" d="M421.481 504.727c0 32.412-29.272 74.516-79.528 74.138-51.828.455-73.949-41.726-73.949-74.138 0-32.412 34.379-58.717 76.739-58.717 42.359 0 76.738 26.305 76.738 58.717z" font-size="12" transform="matrix(1.30209 0 0 1.22525 -140.7104 -217.80968)"/>
  <path fill="url(#p)" d="M398.227 412.292c-.612 38.572-23.18 47.671-51.74 47.671-28.561 0-49.292-5.694-51.741-47.671 0-26.314 23.18-41.542 51.741-41.542 28.56 0 51.74 15.228 51.74 41.542z" font-size="12" transform="matrix(1.1868 0 0 1.06708 -100.1294 -164.33068)"/>
  <path fill="url(#q)" d="M234.285 456.475c17.716-26.996 55.015-68.364 6.977 5.813-38.951 61.043-14.403 100.273-1.744 111.039 36.527 32.562 34.966 54.349 6.395 37.206-61.625-36.626-48.835-98.248-11.628-154.058z" transform="matrix(1.25 0 0 1.25 -125.2984 -231.75768)"/>
  <path fill="url(#r)" d="M490.662 467.52c-15.319-31.701-64.134-111.902 2.326-18.603 60.461 84.297 18.022 143.013 10.464 148.827-7.557 5.813-33.137 17.44-25.579-2.907 7.557-20.347 45.234-58.973 12.789-127.317z" transform="matrix(1.25 0 0 1.25 -125.2984 -231.75768)"/>
  <path fill="url(#s)" stroke="#e68c3f" stroke-width="6.25" d="M220.915 716.921c-40.442-21.416-99.252 4.124-77.902-54.066 4.276-13.238-6.375-33.008.581-45.926 8.139-15.698 25.58-12.209 36.045-22.674 10.318-10.891 16.859-29.649 36.044-26.742 19.184 2.907 31.945 26.461 45.344 55.229 9.883 20.638 44.941 49.664 42.65 72.758-2.696 35.5-43.027 42.19-82.762 21.421z" transform="matrix(1.25 0 0 1.25 -125.2984 -231.75768)" filter="url(#filter)"/>
  <path fill="url(#t)" d="M415.072 495.764c-3.007 24.906-35.813 76.627-69.518 81.534-34.26 5.336-66.432-34.06-74.147-71.114-9.889-41.206 22.587-57.6 71.938-56.627 53.301 1.654 74.121 13.891 71.727 46.207z" font-size="12" transform="matrix(.5982 .26858 -.23962 .61721 389.8156 76.21132)"/>
  <path fill="url(#u)" stroke="#e68c3f" stroke-width="6.25067997" d="M220.274 718.402c-41.327-23.59-99.894 5.605-77.261-55.547 4.736-13.068-6.596-33.552.36-46.47 8.139-15.698 25.801-11.665 36.266-22.13 10.318-10.891 18.827-27.868 38.012-24.961 19.184 2.907 29.977 24.68 43.376 53.448 9.883 20.638 43.415 48.971 41.124 72.065-2.696 35.5-42.724 45.471-81.877 23.595z" transform="matrix(-1.1685 .42314 .47528 1.16478 417.5906 -278.07368)"/>
  <path fill="url(#v)" d="M216.482 675.68c-86.531-57.503-47.308-70.96-36.843-81.425 10.318-10.891 18.827-27.868 38.012-24.961 19.184 2.907 29.977 24.68 43.376 53.448 9.883 20.638 43.06 48.918 41.124 72.065-2.616 27.11-48.19 5.487-85.669-19.127z" transform="matrix(-.9451 .34375 .42408 .95606 403.5756 -128.59468)"/>
  <path fill="url(#w)" d="M216.506 677.071c-86.531-57.503-46.797-73.57-33.946-81.28 15.399-9.942 15.158-30.831 34.343-27.924 19.184 2.907 30.725 26.107 44.124 54.875 9.883 20.638 43.06 48.918 41.124 72.065-2.616 27.11-48.166 6.878-85.645-17.736z" transform="matrix(1.00431 -.05229 -.0174 1.04575 -66.5614 -92.71798)"/>
  <path d="M514.16392618 492.89388153c-6.69409764 11.6729672-34.29007759 30.19600752-52.6812594 25.36804862-18.76593057-4.73521422-27.21700072-31.1485461-23.54211688-51.13877146 3.41150018-22.51206827 23.54139341-23.63093696 48.7850296-12.52637614 27.13954878 12.29170413 35.346749 22.8266733 27.43834668 38.29709898z" font-size="12"/>
  <path fill="url(#x)" d="M415.072 495.764c-3.007 24.906-35.813 76.627-69.518 81.534-34.26 5.336-66.432-34.06-74.147-71.114-9.889-41.206 22.587-57.6 71.938-56.627 53.301 1.654 74.121 13.891 71.727 46.207z" font-size="12" transform="matrix(.35123 .14946 -.12886 .34347 413.7696 254.03832)"/>
  <path fill="url(#y)" stroke="#e68c3f" stroke-width="3.75" d="M309.954 338.729c7.147-6.77 24.811-27.066 57.961-5.755 6.162 4.01 11.162 4.377 23.021 9.455 23.726 9.749 12.382 33.259-12.744 41.108-10.758 3.489-20.536 16.556-40.129 15.439-16.734-.977-21.119-11.874-31.398-17.906-18.269-10.311-20.965-24.254-11.1-31.653 9.866-7.399 13.725-10.059 14.389-10.688z" transform="matrix(1.25 0 0 1.25 -125.2984 -231.75768)"/>
  <path fill="none" stroke="#e68c3f" stroke-width="3.125" d="M363.76535 215.29857c-12.35375.72625-39.24125 27.61375-67.5825 27.61375-28.34125 0-45.055-26.16125-49.415-26.16125"/>
  <path fill="url(#z)" d="M309.954 338.729c7.147-6.77 29.691-25.348 59.588-6.328 6.299 3.766 12.804 7.865 22.478 13.464 19.162 11.748 9.671 28.678-13.286 39.39-10.418 4.495-27.593 14.415-40.671 13.721-14.533-1.408-23.935-11.399-33.567-17.906-17.67-12.303-16.597-22.237-8.389-30.508 6.205-5.679 13.183-11.204 13.847-11.833z" transform="matrix(.62789 0 0 .59567 81.6136 -12.43538)"/>
</svg>