<?xml version="1.0" encoding="utf-8"?>
<!-- Generator: Adobe Illustrator 17.0.0, SVG Export Plug-In . SVG Version: 6.00 Build 0)  -->
<!DOCTYPE svg PUBLIC "-//W3C//DTD SVG 1.1//EN" "http://www.w3.org/Graphics/SVG/1.1/DTD/svg11.dtd">
<svg version="1.1" id="Layer_1" xmlns="http://www.w3.org/2000/svg" xmlns:xlink="http://www.w3.org/1999/xlink" x="0px" y="0px"
	 width="50px" height="50px" viewBox="0 0 50 50" enable-background="new 0 0 50 50" xml:space="preserve">

<g>
	<path fill-rule="evenodd" clip-rule="evenodd" d="M29.796,17.167c2.449,0,4.195,1.704,4.195,4.09c0,3.613-1.608,4.704-2.865,4.704
		c-2.938,0-4.895-1.909-4.895-4.704C26.231,19.348,27.699,17.167,29.796,17.167L29.796,17.167z"/>
</g>
<g>
	<path fill-rule="evenodd" clip-rule="evenodd" d="M20.204,17.167c2.098,0,3.565,2.182,3.565,4.09c0,2.795-1.957,4.704-4.895,4.704
		c-1.257,0-2.865-1.091-2.865-4.704C16.009,18.871,17.755,17.167,20.204,17.167L20.204,17.167z"/>
</g>
<path fill-rule="evenodd" clip-rule="evenodd" d="M24.94,25.189c1.079,0,2.856,4.515,2.856,5.151c0,0.7-0.444,1.145-1.079,1.145
	c-0.698,0-1.586-1.463-1.713-2.225h-0.128c-0.633,2.098-1.141,2.353-1.522,2.353c-0.763,0-1.015-0.572-1.015-1.463
	C22.339,28.432,23.925,25.189,24.94,25.189L24.94,25.189z"/>
<path fill-rule="evenodd" clip-rule="evenodd" fill="none" stroke="#000000" stroke-width="2.0164" stroke-linecap="round" stroke-linejoin="round" stroke-miterlimit="10" d="
	M37,12c0,0-1,3.367-1,6.383c0,4.596,1.939,4.625,1.939,7.317"/>
<path fill-rule="evenodd" clip-rule="evenodd" fill="none" stroke="#000000" stroke-width="2.0164" stroke-linecap="round" stroke-linejoin="round" stroke-miterlimit="10" d="
	M13,12c0,0,1,3.367,1,6.383c0,4.596-1.939,4.625-1.939,7.317"/>
<path fill-rule="evenodd" clip-rule="evenodd" fill="none" stroke="#000000" stroke-width="2.0212" stroke-linecap="round" stroke-linejoin="round" stroke-miterlimit="10" d="
	M25,1C16.2,1,9,6.487,9,13.255c0,5.83,3,5.021,3,12.255c0,6.092,6.972,3.325,6.972,6.609C18.972,33.546,21.686,35,25,35
	s6.028-1.454,6.028-2.881c0-3.283,6.972-0.517,6.972-6.609c0-7.234,3-6.426,3-12.255C41,6.487,33.8,1,25,1z"/>
<path fill-rule="evenodd" clip-rule="evenodd" fill="none" stroke="#000000" stroke-width="2.0164" stroke-linecap="round" stroke-linejoin="round" stroke-miterlimit="10" d="
	M32.931,30.468C31.861,36.729,31.934,41,25,41s-6.861-4.271-7.931-10.532"/>
<path fill-rule="evenodd" clip-rule="evenodd" fill="none" stroke="#000000" stroke-width="2.0164" stroke-linecap="round" stroke-linejoin="round" stroke-miterlimit="10" d="
	M14.083,29.888c0.902,1.388,0.785,8.827,1.019,9.447C15.336,39.955,20.811,45,25,45s9.664-5.045,9.898-5.665
	s0.153-8.421,1.055-9.809"/>
<path fill-rule="evenodd" clip-rule="evenodd" fill="none" stroke="#000000" stroke-width="2.0164" stroke-linecap="round" stroke-linejoin="round" stroke-miterlimit="10" d="
	M35.457,38.301c0,0,4.86,2.353,6.222,2.974c1.425,0.65,1.967-1.708,3.832-1.501c1.845,0.205,1.983,1.669,1.833,2.489
	c-0.32,1.754-1.686,1.711-2.943,2.478C44.805,46.035,45.16,49,42.233,49c-2.471,0-2.067-3.431-3.076-4.103
	c-1.448-0.966-6.152-3.26-6.152-3.26 M36.876,28.663c0,0,2.339-1.115,4.797-2.054s0.37-3.435,3.087-4.634
	c2.295-1.013,3.659,2.112,2.458,3.93c1.258,0.763,1.772,1.265,1.772,2.816c0,1.416-1.076,2.698-2.287,2.698
	c-1.818,0-1.52-1.199-3.692-0.143l-7.597,2.89"/>
<path fill-rule="evenodd" clip-rule="evenodd" fill="none" stroke="#000000" stroke-width="2.0164" stroke-linecap="round" stroke-linejoin="round" stroke-miterlimit="10" d="
	M16.977,41.637c0,0-4.704,2.294-6.152,3.26C9.817,45.569,10.22,49,7.749,49c-2.927,0-2.572-2.965-2.168-4.259
	c-1.256-0.767-2.622-0.724-2.943-2.478c-0.15-0.82-0.012-2.284,1.833-2.489c1.866-0.207,2.407,2.151,3.832,1.501
	c1.362-0.621,6.222-2.974,6.222-2.974 M14.567,34.167l-7.597-2.89c-2.172-1.056-1.875,0.143-3.692,0.143
	c-1.21,0-2.287-1.283-2.287-2.698c0-1.551,0.515-2.053,1.772-2.816c-1.201-1.819,0.163-4.943,2.458-3.93
	c2.718,1.199,0.629,3.696,3.087,4.634s4.797,2.054,4.797,2.054"/>
<line fill-rule="evenodd" clip-rule="evenodd" fill="none" stroke="#000000" stroke-width="2" stroke-linecap="round" stroke-linejoin="round" stroke-miterlimit="10" x1="25" y1="35.071" x2="25" y2="40.998"/>
<line fill-rule="evenodd" clip-rule="evenodd" fill="none" stroke="#000000" stroke-width="2" stroke-linecap="round" stroke-linejoin="round" stroke-miterlimit="10" x1="27.986" y1="34.802" x2="27.986" y2="40.487"/>
<line fill-rule="evenodd" clip-rule="evenodd" fill="none" stroke="#000000" stroke-width="2" stroke-linecap="round" stroke-linejoin="round" stroke-miterlimit="10" x1="30.972" y1="33.491" x2="30.972" y2="38.238"/>
<line fill-rule="evenodd" clip-rule="evenodd" fill="none" stroke="#000000" stroke-width="2" stroke-linecap="round" stroke-linejoin="round" stroke-miterlimit="10" x1="19.028" y1="33.491" x2="19.028" y2="38.238"/>
<line fill-rule="evenodd" clip-rule="evenodd" fill="none" stroke="#000000" stroke-width="2" stroke-linecap="round" stroke-linejoin="round" stroke-miterlimit="10" x1="22.014" y1="34.802" x2="22.014" y2="40.487"/>
<path fill="none" stroke="#000000" stroke-width="1.4" stroke-linecap="round" stroke-linejoin="round" stroke-miterlimit="10" d="
	M18.241,35.318c0,0,2.912,2.682,6.676,2.682s6.855-2.682,6.855-2.682"/>
</svg>
