<?xml version="1.0" encoding="utf-8"?>
<!-- Generator: Adobe Illustrator 16.0.0, SVG Export Plug-In . SVG Version: 6.00 Build 0)  -->
<!DOCTYPE svg PUBLIC "-//W3C//DTD SVG 1.1//EN" "http://www.w3.org/Graphics/SVG/1.1/DTD/svg11.dtd">
<svg version="1.1" id="Layer_1" xmlns="http://www.w3.org/2000/svg" xmlns:xlink="http://www.w3.org/1999/xlink" x="0px" y="0px"
	 width="136.913px" height="136.914px" viewBox="0 0 136.913 136.914" enable-background="new 0 0 136.913 136.914"
	 xml:space="preserve">
<g>
	<g>
		<circle fill="#FFCE00" cx="68.457" cy="68.457" r="63.333"/>
		<g>
			<g>
				<g>
					<defs>
						<path id="SVGID_12_" d="M84.002,18.197c1.803,0,3.266,1.461,3.266,3.264v49.656c0,1.803-1.463,3.266-3.266,3.266H54.207
							c-1.801,0-3.264-1.463-3.264-3.266V21.46c0-1.803,1.463-3.264,3.264-3.264H84.002z"/>
					</defs>
					<clipPath id="SVGID_2_">
						<use xlink:href="#SVGID_12_"  overflow="visible"/>
					</clipPath>
					<path clip-path="url(#SVGID_2_)" fill="#1B7A9A" d="M84.002,18.197c1.803,0,3.266,1.461,3.266,3.264v49.656
						c0,1.803-1.463,3.266-3.266,3.266H54.207c-1.801,0-3.264-1.463-3.264-3.266V21.46c0-1.803,1.463-3.264,3.264-3.264H84.002z"/>
					<g clip-path="url(#SVGID_2_)">
						<path fill="#2992AD" d="M61.477,34.164c0,0,0.945,4.568,0.068,6.207c0,0-1.416,1.09-0.201,4.158c0,0,3.236,5.385,6.473,5.453
							c0,0,6.408,1.5,7.285-4.158c0,0-1.955-5.932,0.338-6.684c0,0,2.832-0.203,3.439-0.748c0,0,1.303-0.887,2.088-0.818
							c0,0,2.631,0.613,4.654-0.205c0,0,1.754-0.545,2.293-0.477c0,0-1.482-5.182-6.34-6.818c0,0-3.371-0.955-4.248-1.023
							c0,0-3.91-1.363-5.125-1.705c0,0-3.643-1.227-3.17,0.818c0,0-1.35,1.432-2.359,2.455C65.66,31.64,61.816,33.619,61.477,34.164
							z"/>
						<path fill="#2992AD" d="M66.537,29.595l-5.26,5.729c0,0-1.082-1.227-1.688-0.818c-0.607,0.408,0.201,1.295,0.201,2.045
							s0.607,1.773,0.068,2.182s-0.404,0.684-0.068,1.092c0.338,0.408,0.879,1.158,0.539,1.227c-0.336,0.07-0.201,1.295-0.539,1.363
							c-0.336,0.068-1.279-0.203-1.078,0.41c0.201,0.611,0.877,1.5,1.215,1.637c0.336,0.135,1.35,0.613,1.35,1.09
							c0,0.479,0.268,1.705-0.137,1.91c-0.404,0.203-1.754,0.613-2.158,0.203c-0.406-0.408,0.021-2.41-0.471-2.316
							c-0.494,0.092-1.582,0.328-1.734,0.025c-0.154-0.299-1.908-1.117-2.109-1.662c-0.203-0.545,0.539-1.979,0.066-2.18
							c0,0-1.416-0.07-1.619,0.201c-0.201,0.273-0.809,0.479-0.742,0.955c0.068,0.479,0.541,0.682,0.742,0.344
							c0.203-0.344,1.012-0.617,1.012-0.412s0.137,2.047-0.336,2.113c-0.473,0.068-1.619-0.203-2.023-0.816
							c-0.404-0.615-0.338-1.91-0.135-2.32c0.201-0.408-0.203-0.885-0.541-1.021c-0.336-0.137-1.467,1.938-1.467,2.553
							c0,0,1.209-16.16,17.727-18.934c0,0-5.672,1.721-6.008,2.881c0,0,0.404,0.613,0.336,1.021c-0.066,0.41-1.35,2.455-1.01,2.592
							c0.336,0.137,1.482-0.955,1.617-2.113s0.271-1.229,0.877-1.297c0.607-0.066,1.551-0.271,2.158-0.135
							C65.93,27.277,67.75,28.095,66.537,29.595z"/>
						<path fill="#2992AD" d="M54.533,46.505c0,0,0.336,0.545,0.809,0.818c0.471,0.273,0.875,0.273,0.875,0.273
							s0.203-0.348,0.203-0.695c0-0.35-0.338-1.283-0.809-1.283C55.139,45.619,54.533,46.505,54.533,46.505z"/>
						<path fill="#2992AD" d="M50.486,47.324c0,0,1.955,1.637,2.158,2.453c0.203,0.82,0.875,2.182,1.146,2.523
							c0.27,0.342-0.203,1.5-0.742,0.818c-0.541-0.682-1.752-2.521-1.889-2.113c-0.135,0.408,1.146,2.25,1.688,3
							c0.537,0.75,1.346,1.363,1.887,1.703c0.539,0.344,1.955,0.273,2.227,1.023c0.268,0.75,1.615,4.023,2.563,5.115
							c0.943,1.09,1.641,2.264,2.584,2.742c0.945,0.477-1.508-0.242-2.41-0.662c0,0-5.164-2.9-8.4-9.514
							C51.297,54.414,50.014,49.369,50.486,47.324z"/>
						<path fill="#2992AD" d="M74.225,66.414c0,0-3.641,0.684-3.98-0.066c-0.338-0.752-0.406-0.977,0.271-1.637
							s1.82-1.568,2.428-1.91c0.607-0.34,1.348-1.568,1.82-1.568s1.619,0.273,2.158,0c0.541-0.271,0.607-0.682,0.877-1.295
							c0.268-0.613,0.674-1.773,1.281-2.455s1.348-1.635,2.156-1.43c0.811,0.201,2.027,0.611,2.496,0.477
							c0.473-0.137,1.281-0.615,1.619-0.07c0.338,0.547,0.27,0.955,0.875,0.889c0.609-0.07,2.494-0.752,2.832-0.957
							C89.059,56.39,85.441,64.89,74.225,66.414z"/>
						<path fill="#2992AD" d="M66.73,65.484c-0.471-0.137-2.832-0.479-2.832-0.068c2.953,0.799,2.914,0.771,5.125,1.092"/>
					</g>
					<path clip-path="url(#SVGID_2_)" fill="#AAAAAA" d="M77.252,59.257c0.832,0,1.508,0.4,1.508,0.893v9.064
						c0,0.492-0.676,0.893-1.508,0.893l0,0c-0.832,0-1.506-0.4-1.506-0.893V60.15C75.746,59.658,76.42,59.257,77.252,59.257
						L77.252,59.257z"/>
					<path clip-path="url(#SVGID_2_)" fill="#AAAAAA" d="M77.252,46.835c0.832,0,1.508,0.4,1.508,0.893v9.066
						c0,0.492-0.676,0.891-1.508,0.891l0,0c-0.832,0-1.506-0.398-1.506-0.891v-9.066C75.746,47.236,76.42,46.835,77.252,46.835
						L77.252,46.835z"/>
					<path clip-path="url(#SVGID_2_)" fill="#AAAAAA" d="M77.252,34.507c0.832,0,1.508,0.4,1.508,0.893v9.066
						c0,0.49-0.676,0.893-1.508,0.893l0,0c-0.832,0-1.506-0.402-1.506-0.893V35.4C75.746,34.908,76.42,34.507,77.252,34.507
						L77.252,34.507z"/>
					<path clip-path="url(#SVGID_2_)" fill="#AAAAAA" d="M77.252,22.281c0.834,0,1.514,0.4,1.514,0.896v9.09
						c0,0.494-0.68,0.893-1.514,0.893l0,0c-0.834,0-1.51-0.398-1.51-0.893v-9.09C75.742,22.681,76.418,22.281,77.252,22.281
						L77.252,22.281z"/>
					<g clip-path="url(#SVGID_2_)">
						<rect x="61.82" y="59.548" fill="#BBBCBB" width="1.121" height="9.674"/>
						<rect x="59.814" y="59.548" fill="#BBBCBB" width="0.943" height="9.674"/>
						<g>
							<path fill="#CDCDCE" d="M62.617,65.617c0.602,0,1.09-0.523,1.09-1.168c0-0.648-0.488-1.172-1.09-1.172h-3.863v2.34H62.617z"
								/>
							<path fill="#BBBCBB" d="M57.455,65.48v2.41c0,0.736,0.557,1.332,1.242,1.332h0.057v-3.605h-0.797
								C57.775,65.617,57.605,65.564,57.455,65.48z"/>
							<path fill="#BBBCBB" d="M58.697,59.548c-0.686,0-1.242,0.596-1.242,1.33v2.535c0.15-0.084,0.32-0.137,0.502-0.137h0.797
								v-3.729H58.697z"/>
							<path fill="#CDCDCE" d="M57.455,63.414v2.066c0.15,0.084,0.32,0.137,0.502,0.137h0.797v-2.34h-0.797
								C57.775,63.277,57.605,63.33,57.455,63.414z"/>
						</g>
						<path fill="#BBBCBB" d="M64.129,69.222c0.684,0,1.24-0.596,1.24-1.332v-7.012c0-0.734-0.557-1.33-1.24-1.33h-0.127v9.674
							H64.129z"/>
						<rect x="58.754" y="59.548" fill="#CDCDCE" width="1.061" height="9.674"/>
						<rect x="60.758" y="59.548" fill="#CDCDCE" width="1.063" height="9.674"/>
						<rect x="62.941" y="59.548" fill="#CDCDCE" width="1.061" height="9.674"/>
					</g>
					<path clip-path="url(#SVGID_2_)" fill="#CDCDCE" d="M54.297,29.796c0,1.764,0.674,3.375,1.771,4.584
						c-0.973,1.15-1.561,2.637-1.561,4.262c0,3.65,2.957,6.607,6.607,6.607s6.607-2.957,6.607-6.607c0-1.625-0.59-3.111-1.561-4.262
						c1.1-1.209,1.77-2.82,1.77-4.584c0-3.766-3.051-6.816-6.816-6.816C57.352,22.98,54.297,26.031,54.297,29.796z M65.639,25.271
						c1.158,1.16,1.873,2.76,1.873,4.525c0,1.643-0.619,3.137-1.637,4.27c-0.223-0.232-0.465-0.451-0.721-0.65v1.342
						c-0.201,0.164-0.414,0.316-0.633,0.453v-2.23c-0.234-0.141-0.482-0.27-0.736-0.381v3.012c-0.203,0.094-0.416,0.178-0.633,0.248
						v-3.502c-0.238-0.076-0.482-0.141-0.732-0.191v3.893c-0.209,0.045-0.42,0.078-0.633,0.1v-4.086
						c-0.223-0.023-0.447-0.035-0.672-0.035c-0.021,0-0.043,0-0.063,0v4.156c-0.215-0.004-0.426-0.016-0.635-0.035v-4.084
						c-0.248,0.025-0.494,0.066-0.734,0.119v3.838c-0.215-0.049-0.426-0.107-0.631-0.178v-3.488
						c-0.252,0.084-0.498,0.182-0.736,0.293v2.893c-0.217-0.105-0.428-0.225-0.631-0.354v-2.203
						c-0.258,0.158-0.502,0.334-0.736,0.521v1.135c-0.123-0.105-0.242-0.215-0.359-0.328c-1.156-1.162-1.873-2.76-1.873-4.525
						s0.717-3.365,1.873-4.525c1.16-1.156,2.76-1.871,4.525-1.871C62.883,23.4,64.479,24.115,65.639,25.271z M66.094,22.958
						c-0.129,0.133-0.195,0.297-0.195,0.484c0,0.189,0.066,0.352,0.195,0.484c0.127,0.133,0.291,0.199,0.488,0.199
						c0.189,0,0.348-0.066,0.477-0.199c0.131-0.133,0.195-0.295,0.195-0.484c0-0.188-0.064-0.352-0.195-0.484
						c-0.129-0.133-0.287-0.201-0.477-0.201C66.385,22.757,66.221,22.826,66.094,22.958z M66.982,23.048
						c0.111,0.109,0.166,0.24,0.166,0.395s-0.055,0.287-0.166,0.4c-0.111,0.111-0.244,0.168-0.4,0.168
						c-0.172,0-0.311-0.057-0.418-0.168c-0.109-0.113-0.162-0.246-0.162-0.4s0.053-0.285,0.162-0.395
						c0.107-0.107,0.246-0.162,0.418-0.162C66.738,22.886,66.871,22.941,66.982,23.048z M66.391,23.132
						c-0.139,0-0.207,0.096-0.207,0.285v0.281h0.785v-0.115h-0.334v-0.121l0.334-0.195v-0.135l-0.361,0.207
						C66.607,23.203,66.537,23.132,66.391,23.132z M66.516,23.457v0.127h-0.229v-0.166c0-0.111,0.035-0.168,0.104-0.168
						C66.475,23.25,66.516,23.318,66.516,23.457z"/>
				</g>
			</g>
			<g>
				<path fill="#AAA79B" d="M91.936,111.75c0,3.631-8.256,8.158-23.006,8.158s-22.99-4.527-22.99-8.158v-59.22
					c0-3.629,2.941-6.57,6.57-6.57h32.854c3.631,0,6.572,2.941,6.572,6.57V111.75z"/>
				<path fill="#B2B0A6" d="M68.93,119.909c-14.75,0-22.99-4.527-22.99-8.158v-59.22c0-3.629,2.941-6.57,6.57-6.57h16.42V119.909z"
					/>
				<path fill="#CDE7D5" d="M88.102,67.289c0,3.023-2.451,3.285-5.477,3.285H55.248c-3.023,0-5.477-0.262-5.477-3.285V55.367
					c0-3.023,2.453-3.793,5.477-3.793h27.377c3.025,0,5.477,0.77,5.477,3.793V67.289z"/>
				<path fill="#C3D5C7" d="M88.102,67.289c0,3.023-2.451,3.285-5.477,3.285H55.248c-3.023,0-5.477-0.262-5.477-3.285l38.33-11.922
					V67.289z"/>
				<g>
					<path fill="#86847D" d="M60.779,84.426c0,0.713-0.576,1.293-1.291,1.293h-7.859c-0.713,0-1.291-0.58-1.291-1.293v-6.852
						c0-0.715,0.578-1.294,1.291-1.294h7.859c0.715,0,1.291,0.579,1.291,1.294V84.426z"/>
					<path fill="#86847D" d="M88.297,84.426c0,0.713-0.578,1.293-1.291,1.293h-7.859c-0.713,0-1.291-0.58-1.291-1.293v-6.852
						c0-0.715,0.578-1.294,1.291-1.294h7.859c0.713,0,1.291,0.579,1.291,1.294V84.426z"/>
					<path fill="#86847D" d="M74.561,84.426c0,0.713-0.578,1.293-1.291,1.293H65.41c-0.713,0-1.291-0.58-1.291-1.293v-6.852
						c0-0.715,0.578-1.294,1.291-1.294h7.859c0.713,0,1.291,0.579,1.291,1.294V84.426z"/>
					<g>
						<path fill="#86847D" d="M60.779,96.774c0,0.715-0.576,1.291-1.291,1.291h-7.859c-0.713,0-1.291-0.576-1.291-1.291V89.92
							c0-0.713,0.578-1.291,1.291-1.291h7.859c0.715,0,1.291,0.578,1.291,1.291V96.774z"/>
						<path fill="#86847D" d="M88.297,96.774c0,0.715-0.578,1.291-1.291,1.291h-7.859c-0.713,0-1.291-0.576-1.291-1.291V89.92
							c0-0.713,0.578-1.291,1.291-1.291h7.859c0.713,0,1.291,0.578,1.291,1.291V96.774z"/>
						<path fill="#86847D" d="M74.561,96.774c0,0.715-0.578,1.291-1.291,1.291H65.41c-0.713,0-1.291-0.576-1.291-1.291V89.92
							c0-0.713,0.578-1.291,1.291-1.291h7.859c0.713,0,1.291,0.578,1.291,1.291V96.774z"/>
					</g>
					<g>
						<path fill="#86847D" d="M60.779,109.069c0,0.713-0.576,1.291-1.291,1.291h-7.859c-0.713,0-1.291-0.578-1.291-1.291v-6.854
							c0-0.715,0.578-1.293,1.291-1.293h7.859c0.715,0,1.291,0.578,1.291,1.293V109.069z"/>
						<path fill="#86847D" d="M88.297,109.069c0,0.713-0.578,1.291-1.291,1.291h-7.859c-0.713,0-1.291-0.578-1.291-1.291v-6.854
							c0-0.715,0.578-1.293,1.291-1.293h7.859c0.713,0,1.291,0.578,1.291,1.293V109.069z"/>
						<path fill="#86847D" d="M74.561,109.069c0,0.713-0.578,1.291-1.291,1.291H65.41c-0.713,0-1.291-0.578-1.291-1.291v-6.854
							c0-0.715,0.578-1.293,1.291-1.293h7.859c0.713,0,1.291,0.578,1.291,1.293V109.069z"/>
					</g>
				</g>
				<g>
					<path fill="#DDDCD6" d="M60.404,83.926c0,0.713-0.576,1.293-1.291,1.293h-7.859c-0.713,0-1.291-0.58-1.291-1.293v-6.852
						c0-0.716,0.578-1.294,1.291-1.294h7.859c0.715,0,1.291,0.578,1.291,1.294V83.926z"/>
					<path fill="#DDDCD6" d="M87.922,83.926c0,0.713-0.578,1.293-1.291,1.293h-7.859c-0.713,0-1.291-0.58-1.291-1.293v-6.852
						c0-0.716,0.578-1.294,1.291-1.294h7.859c0.713,0,1.291,0.578,1.291,1.294V83.926z"/>
					<path fill="#DDDCD6" d="M74.186,83.926c0,0.713-0.578,1.293-1.291,1.293h-7.859c-0.713,0-1.291-0.58-1.291-1.293v-6.852
						c0-0.716,0.578-1.294,1.291-1.294h7.859c0.713,0,1.291,0.578,1.291,1.294V83.926z"/>
					<g>
						<path fill="#DDDCD6" d="M60.404,96.274c0,0.715-0.576,1.291-1.291,1.291h-7.859c-0.713,0-1.291-0.576-1.291-1.291V89.42
							c0-0.713,0.578-1.291,1.291-1.291h7.859c0.715,0,1.291,0.578,1.291,1.291V96.274z"/>
						<path fill="#DDDCD6" d="M87.922,96.274c0,0.715-0.578,1.291-1.291,1.291h-7.859c-0.713,0-1.291-0.576-1.291-1.291V89.42
							c0-0.713,0.578-1.291,1.291-1.291h7.859c0.713,0,1.291,0.578,1.291,1.291V96.274z"/>
						<path fill="#DDDCD6" d="M74.186,96.274c0,0.715-0.578,1.291-1.291,1.291h-7.859c-0.713,0-1.291-0.576-1.291-1.291V89.42
							c0-0.713,0.578-1.291,1.291-1.291h7.859c0.713,0,1.291,0.578,1.291,1.291V96.274z"/>
					</g>
					<g>
						<path fill="#DDDCD6" d="M60.404,108.569c0,0.713-0.576,1.291-1.291,1.291h-7.859c-0.713,0-1.291-0.578-1.291-1.291v-6.854
							c0-0.715,0.578-1.293,1.291-1.293h7.859c0.715,0,1.291,0.578,1.291,1.293V108.569z"/>
						<path fill="#DDDCD6" d="M87.922,108.569c0,0.713-0.578,1.291-1.291,1.291h-7.859c-0.713,0-1.291-0.578-1.291-1.291v-6.854
							c0-0.715,0.578-1.293,1.291-1.293h7.859c0.713,0,1.291,0.578,1.291,1.293V108.569z"/>
						<path fill="#DDDCD6" d="M74.186,108.569c0,0.713-0.578,1.291-1.291,1.291h-7.859c-0.713,0-1.291-0.578-1.291-1.291v-6.854
							c0-0.715,0.578-1.293,1.291-1.293h7.859c0.713,0,1.291,0.578,1.291,1.293V108.569z"/>
					</g>
				</g>
			</g>
		</g>
	</g>
</g>
</svg>
