<?xml version="1.0" encoding="UTF-8" standalone="no"?><!DOCTYPE svg PUBLIC "-//W3C//DTD SVG 1.1//EN" "http://www.w3.org/Graphics/SVG/1.1/DTD/svg11.dtd"><svg width="100%" height="100%" viewBox="0 0 400 400" version="1.1" xmlns="http://www.w3.org/2000/svg" xmlns:xlink="http://www.w3.org/1999/xlink" xml:space="preserve" xmlns:serif="http://www.serif.com/" style="fill-rule:evenodd;clip-rule:evenodd;stroke-linejoin:round;stroke-miterlimit:2;"><path d="M200,14.986l13.054,19.142l15.889,-16.864l9.899,20.949l18.33,-14.171l6.501,22.239l20.321,-11.129l2.942,22.982l21.812,-7.813l-0.69,23.159l22.766,-4.304l-4.304,22.766l23.159,-0.69l-7.813,21.812l22.982,2.942l-11.129,20.321l22.239,6.501l-14.171,18.33l20.949,9.899l-16.864,15.889l19.142,13.054l-19.142,13.054l16.864,15.889l-20.949,9.899l14.171,18.33l-22.239,6.501l11.129,20.321l-22.982,2.942l7.813,21.812l-23.159,-0.69l4.304,22.766l-22.766,-4.304l0.69,23.159l-21.812,-7.813l-2.942,22.982l-20.321,-11.129l-6.501,22.239l-18.33,-14.171l-9.899,20.949l-15.889,-16.864l-13.054,19.142l-13.054,-19.142l-15.889,16.864l-9.899,-20.949l-18.33,14.171l-6.501,-22.239l-20.321,11.129l-2.942,-22.982l-21.812,7.813l0.69,-23.159l-22.766,4.304l4.304,-22.766l-23.159,0.69l7.813,-21.812l-22.982,-2.942l11.129,-20.321l-22.239,-6.501l14.171,-18.33l-20.949,-9.899l16.864,-15.889l-19.142,-13.054l19.142,-13.054l-16.864,-15.889l20.949,-9.899l-14.171,-18.33l22.239,-6.501l-11.129,-20.321l22.982,-2.942l-7.813,-21.812l23.159,0.69l-4.304,-22.766l22.766,4.304l-0.69,-23.159l21.812,7.813l2.942,-22.982l20.321,11.129l6.501,-22.239l18.33,14.171l9.899,-20.949l15.889,16.864l13.054,-19.142Z" style="fill:url(#_Radial1);"/><defs><radialGradient id="_Radial1" cx="0" cy="0" r="1" gradientUnits="userSpaceOnUse" gradientTransform="matrix(370.027,0,0,370.027,14.9863,200)"><stop offset="0" style="stop-color:#0014ff;stop-opacity:1"/><stop offset="0.28" style="stop-color:#0242ba;stop-opacity:1"/><stop offset="0.59" style="stop-color:#08bc00;stop-opacity:1"/><stop offset="1" style="stop-color:#0002ff;stop-opacity:1"/></radialGradient></defs></svg>